<?xml version="1.0" standalone="no"?>
<!DOCTYPE svg PUBLIC "-//W3C//DTD SVG 20010904//EN"
 "http://www.w3.org/TR/2001/REC-SVG-20010904/DTD/svg10.dtd">
<svg version="1.0" xmlns="http://www.w3.org/2000/svg"
 width="56.000000pt" height="54.000000pt" viewBox="0 0 56.000000 54.000000"
 preserveAspectRatio="xMidYMid meet">

<g transform="translate(0.000000,54.000000) scale(0.100000,-0.100000)"
fill="#000000" stroke="none">
<path d="M220 488 c0 -29 7 -82 15 -117 9 -35 13 -66 11 -68 -3 -3 -20 7 -38
21 -41 31 -144 79 -159 74 -6 -2 -19 -25 -29 -51 l-18 -47 36 -16 c37 -15 109
-31 170 -36 l32 -3 -46 -37 c-50 -40 -114 -116 -114 -135 0 -7 19 -25 43 -42
l43 -29 33 48 c18 26 43 77 56 112 14 38 25 57 29 48 3 -8 13 -35 21 -60 18
-51 73 -140 86 -140 14 0 89 51 89 60 0 16 -79 107 -121 141 l-43 34 63 7 c52
6 157 33 170 44 6 6 -31 104 -40 104 -24 0 -114 -42 -159 -74 -27 -20 -50 -35
-50 -33 0 2 7 27 15 55 9 28 17 82 18 119 l2 68 -57 3 -58 3 0 -53z"/>
</g>
</svg>
