<svg xmlns="http://www.w3.org/2000/svg" height="24" viewBox="0 96 960 960" width="24"><path d="M480 936q-66.539 0-124.731-25.038-58.192-25.039-101.692-68.539-43.5-43.5-68.539-101.692Q160 682.539 160 616h40q0 117 81.5 198.5T480 896q117 0 198.5-81.5T760 616q0-117-81.5-198.5T480 336h-15.231l65.077 65.077-28.308 28.769-113.846-114.615 115.385-114.616 28.308 28.769L464.769 296H480q66.539 0 124.731 25.038 58.192 25.039 101.692 68.539 43.5 43.5 68.539 101.692Q800 549.461 800 616q0 66.539-25.038 124.731-25.039 58.192-68.539 101.692-43.5 43.5-101.692 68.539Q546.539 936 480 936Z"/></svg>